<?xml version="1.0" encoding="UTF-8" standalone="no"?>
<!-- Generator: Adobe Illustrator 17.1.0, SVG Export Plug-In . SVG Version: 6.00 Build 0)  -->

<svg
   xmlns:dc="http://purl.org/dc/elements/1.1/"
   xmlns:cc="http://creativecommons.org/ns#"
   xmlns:rdf="http://www.w3.org/1999/02/22-rdf-syntax-ns#"
   xmlns:svg="http://www.w3.org/2000/svg"
   xmlns="http://www.w3.org/2000/svg"
   xmlns:xlink="http://www.w3.org/1999/xlink"
   xmlns:sodipodi="http://sodipodi.sourceforge.net/DTD/sodipodi-0.dtd"
   xmlns:inkscape="http://www.inkscape.org/namespaces/inkscape"
   version="1.1"
   id="Layer_1"
   x="0px"
   y="0px"
   width="512"
   height="512"
   viewBox="0 0 512 512"
   enable-background="new 0 0 300 214"
   xml:space="preserve"
   inkscape:version="0.91 r13725"
   sodipodi:docname="icon.svg"
   inkscape:export-filename="/Developer/momentics/bluetoothsppchat/GFX/icon.png"
   inkscape:export-xdpi="45"
   inkscape:export-ydpi="45"><metadata
     id="metadata3434"><rdf:RDF><cc:Work
         rdf:about=""><dc:format>image/svg+xml</dc:format><dc:type
           rdf:resource="http://purl.org/dc/dcmitype/StillImage" /><dc:title></dc:title><cc:license
           rdf:resource="http://creativecommons.org/licenses/by-nc-sa/3.0/" /></cc:Work><cc:License
         rdf:about="http://creativecommons.org/licenses/by-nc-sa/3.0/"><cc:permits
           rdf:resource="http://creativecommons.org/ns#Reproduction" /><cc:permits
           rdf:resource="http://creativecommons.org/ns#Distribution" /><cc:requires
           rdf:resource="http://creativecommons.org/ns#Notice" /><cc:requires
           rdf:resource="http://creativecommons.org/ns#Attribution" /><cc:prohibits
           rdf:resource="http://creativecommons.org/ns#CommercialUse" /><cc:permits
           rdf:resource="http://creativecommons.org/ns#DerivativeWorks" /><cc:requires
           rdf:resource="http://creativecommons.org/ns#ShareAlike" /></cc:License></rdf:RDF></metadata><defs
     id="defs3432"><linearGradient
       inkscape:collect="always"
       id="linearGradient4567"><stop
         style="stop-color:#219d79;stop-opacity:1;"
         offset="0"
         id="stop4569" /><stop
         style="stop-color:#219d79;stop-opacity:0;"
         offset="1"
         id="stop4571" /></linearGradient><radialGradient
       inkscape:collect="always"
       xlink:href="#linearGradient4567"
       id="radialGradient4573"
       cx="512.98389"
       cy="348.17337"
       fx="512.98389"
       fy="348.17337"
       r="90.251999"
       gradientTransform="matrix(1,0,0,0.90008665,0,34.78717)"
       gradientUnits="userSpaceOnUse"
       spreadMethod="reflect" /></defs><sodipodi:namedview
     pagecolor="#ffffff"
     bordercolor="#666666"
     borderopacity="1"
     objecttolerance="10"
     gridtolerance="10"
     guidetolerance="10"
     inkscape:pageopacity="0"
     inkscape:pageshadow="2"
     inkscape:window-width="1440"
     inkscape:window-height="781"
     id="namedview3430"
     showgrid="false"
     inkscape:zoom="0.71845794"
     inkscape:cx="161.04391"
     inkscape:cy="114.40719"
     inkscape:window-x="1280"
     inkscape:window-y="22"
     inkscape:window-maximized="1"
     inkscape:current-layer="layer3" /><g
     inkscape:groupmode="layer"
     id="layer2"
     inkscape:label="arduino"
     style="display:none"><g
       id="g3744"
       transform="translate(136.40325,143.3626)"><path
         d="m 48.350862,74.139195 c -25.036,0 -45.412,19.27 -45.412,42.958005 0,23.69999 20.362,42.95899 45.389,42.95899 2.421,0 4.865,-0.174 7.293,-0.525 27.846,-3.972 44.897998,-31.41799 50.675998,-42.43399 -5.766,-10.991 -22.817998,-38.473005 -50.675998,-42.429005 -2.417,-0.364 -4.861,-0.529 -7.27,-0.529 M 132.48486,117.0972 c 5.766,11.004 22.795,38.46099 50.663,42.43399 2.431,0.351 4.885,0.525 7.281,0.525 25.038,0 45.378,-19.259 45.378,-42.95899 0,-23.687005 -20.352,-42.958005 -45.378,-42.958005 -2.419,0 -4.874,0.165 -7.293,0.528 -27.833,3.957 -44.873,31.427005 -50.651,42.430005 m 57.944,66.54199 c -3.523,0 -7.081,-0.27 -10.628,-0.777 -29.548,-4.226 -49.312,-25.469 -60.41,-41.795 -11.098,16.32501 -30.885998,37.592 -60.431998,41.795 -3.524,0.507 -7.096,0.777 -10.631,0.777 -18.366,-0.012 -35.641,-6.858 -48.617,-19.272 -13.121,-12.531 -20.33,-29.336 -20.33,-47.271 0,-17.940995 7.209,-34.722995 20.342,-47.277995 12.976,-12.415 30.239,-19.26 48.628,-19.26 3.511,0 7.083,0.267 10.607,0.76 29.546,4.231 49.334998,25.486 60.431998,41.799 11.098,-16.314 30.863,-37.569 60.41,-41.799 3.535,-0.493 7.105,-0.76 10.628,-0.76 18.367,0 35.631,6.87 48.608,19.26 13.118,12.554 20.34,29.336 20.34,47.277995 0,17.935 -7.222,34.74 -20.317,47.271 -12.987,12.414 -30.239,19.26 -48.63,19.272"
         id="path3408"
         inkscape:connector-curvature="0"
         style="fill:#00979c" /><rect
         x="29.350863"
         y="110.5922"
         width="41.431"
         height="13.363"
         id="rect3410"
         style="fill:#00979c" /><polygon
         transform="translate(-30.621138,39.112195)"
         points="225.619,57.458 212.242,57.458 212.242,71.48 198.22,71.48 198.22,84.846 212.242,84.846 212.242,98.88 225.619,98.88 225.619,84.846 239.641,84.846 239.641,71.48 225.619,71.48 "
         id="polygon3412"
         style="fill:#00979c" /></g></g><g
     inkscape:groupmode="layer"
     id="layer4"
     inkscape:label="openhw"><g
       id="g8"
       transform="matrix(2.6305285,0,0,-2.6305285,-1092.5259,1167.4392)"
       style="fill:url(#radialGradient4573);fill-opacity:1;stroke:none;stroke-opacity:1"
       mask="none"><g
         id="g3016"
         style="fill:url(#radialGradient4573);fill-opacity:1;stroke:none;stroke-opacity:1"><g
           transform="translate(602.2539,351.748)"
           id="g3022"
           style="fill:url(#radialGradient4573);fill-opacity:1;stroke:none;stroke-opacity:1"><path
             style="opacity:1;fill:url(#radialGradient4573);fill-opacity:1;stroke:none;stroke-opacity:1"
             d="M 0,0 -2.12,0.395 C -2.661,0.494 -3.546,0.659 -4.087,0.76 l -18.075,3.362 c -0.541,0.101 -1.131,0.608 -1.311,1.128 l -6.795,15.849 c -0.253,0.489 -0.204,1.259 0.107,1.714 l 10.563,15.392 c 0.311,0.454 0.821,1.196 1.131,1.65 l 1.221,1.778 c 0.309,0.453 0.246,1.142 -0.143,1.531 l -1.524,1.524 -1.414,1.414 -4.419,4.419 -1.414,1.414 -4.417,4.419 -1.415,1.415 -1.525,1.524 c -0.388,0.389 -1.078,0.453 -1.531,0.142 l -1.778,-1.22 c -0.454,-0.312 -1.196,-0.82 -1.649,-1.132 l -15.722,-10.79 c -0.453,-0.312 -1.228,-0.367 -1.722,-0.125 l -15.365,6.289 c -0.522,0.173 -1.03,0.757 -1.132,1.297 l -3.505,18.838 c -0.1,0.541 -0.266,1.426 -0.365,1.966 l -0.396,2.12 c -0.1,0.54 -0.633,0.982 -1.182,0.982 l -2.156,0 -2,0 -6.25,0 -2,0 -6.25,0 -2,0 -2.155,0 c -0.55,0 -1.082,-0.442 -1.182,-0.983 l -0.395,-2.119 c -0.101,-0.54 -0.265,-1.425 -0.365,-1.966 l -3.506,-18.838 c -0.101,-0.54 -0.609,-1.124 -1.132,-1.297 l -15.365,-6.289 c -0.494,-0.242 -1.269,-0.187 -1.722,0.125 l -15.722,10.79 c -0.454,0.312 -1.196,0.82 -1.649,1.132 l -1.778,1.22 c -0.453,0.311 -1.143,0.247 -1.531,-0.142 l -1.525,-1.524 -1.414,-1.415 -4.419,-4.42 -1.414,-1.414 -4.418,-4.418 -1.414,-1.414 -1.524,-1.524 c -0.389,-0.389 -0.453,-1.078 -0.142,-1.531 l 1.22,-1.778 c 0.31,-0.454 0.82,-1.196 1.131,-1.65 l 10.563,-15.392 c 0.311,-0.455 0.359,-1.225 0.107,-1.714 L -155.065,5.25 c -0.181,-0.52 -0.771,-1.027 -1.312,-1.128 L -174.452,0.76 c -0.541,-0.101 -1.426,-0.266 -1.967,-0.365 L -178.539,0 c -0.541,-0.102 -0.983,-0.633 -0.983,-1.184 l 0.001,-2.156 0,-2 0,-6.25 0,-2 0,-6.248 0,-2 0,-2.155 c 0,-0.55 0.443,-1.083 0.984,-1.183 l 2.119,-0.394 c 0.541,-0.101 1.426,-0.266 1.967,-0.367 l 17.531,-3.262 c 0.541,-0.1 1.119,-0.612 1.284,-1.137 l 6.748,-16.859 c 0.242,-0.493 0.185,-1.27 -0.127,-1.723 l -9.927,-14.466 c -0.312,-0.454 -0.822,-1.196 -1.132,-1.648 l -1.221,-1.78 c -0.31,-0.453 -0.247,-1.142 0.142,-1.531 l 1.525,-1.524 1.414,-1.414 4.421,-4.421 1.414,-1.414 4.417,-4.416 1.414,-1.415 1.526,-1.524 c 0.388,-0.388 1.078,-0.452 1.531,-0.141 l 1.777,1.219 c 0.453,0.311 1.195,0.821 1.649,1.131 l 14.152,9.712 c 0.453,0.311 1.212,0.336 1.685,0.058 l 2.938,-1.654 c 0.484,-0.26 1.281,-0.677 1.771,-0.927 l 3.043,-1.558 c 0.491,-0.25 1.063,-0.039 1.274,0.469 l 1.306,3.158 c 0.211,0.508 0.555,1.34 0.766,1.848 l 12.277,29.669 c 0.211,0.506 0.555,1.339 0.766,1.846 l 0.869,2.102 c 0.211,0.508 -10e-4,1.158 -0.47,1.445 l -1.94,1.187 c -0.358,0.218 -0.845,0.595 -1.226,0.939 -6.999,4.483 -11.641,12.323 -11.641,21.25 0,13.932 11.294,25.226 25.225,25.226 13.932,0 25.226,-11.294 25.226,-25.226 0,-8.928 -4.643,-16.767 -11.642,-21.25 -0.38,-0.344 -0.867,-0.72 -1.226,-0.939 l -1.939,-1.187 c -0.468,-0.287 -0.68,-0.937 -0.47,-1.445 l 0.87,-2.102 c 0.21,-0.508 0.554,-1.34 0.764,-1.846 l 12.277,-29.669 c 0.211,-0.508 0.555,-1.34 0.765,-1.848 l 1.308,-3.158 c 0.211,-0.508 0.783,-0.719 1.274,-0.469 l 3.042,1.558 c 0.492,0.25 1.288,0.667 1.772,0.927 l 2.937,1.654 c 0.474,0.278 1.233,0.253 1.686,-0.058 l 14.152,-9.712 c 0.453,-0.31 1.197,-0.82 1.648,-1.131 l 1.779,-1.219 c 0.453,-0.311 1.143,-0.247 1.531,0.141 l 1.524,1.524 1.415,1.415 4.417,4.418 1.414,1.414 4.421,4.419 1.414,1.414 1.526,1.524 c 0.388,0.388 0.452,1.078 0.141,1.531 l -1.221,1.78 c -0.311,0.452 -0.821,1.194 -1.132,1.648 l -9.928,14.466 c -0.311,0.453 -0.369,1.229 -0.127,1.723 l 6.748,16.859 c 0.166,0.525 0.744,1.037 1.284,1.137 l 17.532,3.262 c 0.541,0.101 1.426,0.266 1.967,0.367 l 2.118,0.394 c 0.541,0.1 0.983,0.633 0.983,1.183 l 0,2.155 0,2 0,6.248 0,2 0.001,6.25 0,2 0.001,2.156 C 0.983,-0.633 0.541,-0.102 0,0"
             inkscape:connector-curvature="0"
             id="path3024" /></g><g
           transform="translate(575.0156,351.7285)"
           id="g3026"
           style="fill:url(#radialGradient4573);fill-opacity:1;stroke:none;stroke-opacity:1"><path
             style="fill:url(#radialGradient4573);fill-opacity:1;fill-rule:nonzero;stroke:none;stroke-opacity:1"
             d="m 0.001,0 c -1.75,8.039 -5.014,15.512 -9.491,22.096 l 13.574,19.783 -5.833,5.832 -5.833,5.835 -20.045,-13.757 c -6.511,4.207 -13.831,7.268 -21.687,8.865 l 0.002,10e-4 -4.469,24.025 -8.249,0 -8.25,0 -4.47,-24.025 0.003,-10e-4 c -7.856,-1.597 -15.177,-4.658 -21.688,-8.865 l -20.043,13.757 -5.834,-5.835 -5.833,-5.832 13.575,-19.783 C -119.049,15.512 -122.312,8.039 -124.062,0 l -23.22,-4.319 0.001,-8.251 0,-8.248 22.791,-4.242 c 1.538,-8.419 4.74,-16.253 9.247,-23.158 l -12.903,-18.801 5.834,-5.833 5.833,-5.833 18.553,12.732 c 2.246,-1.541 4.592,-2.945 7.032,-4.193 l 13.043,31.516 c -8.728,5.336 -14.554,14.954 -14.554,25.935 0,16.775 13.6,30.375 30.376,30.375 16.773,0 30.374,-13.6 30.374,-30.375 0,-10.981 -5.825,-20.599 -14.555,-25.935 l 13.042,-31.516 c 2.44,1.248 4.786,2.652 7.032,4.193 l 18.554,-12.732 5.833,5.833 5.835,5.833 -12.904,18.801 c 4.506,6.905 7.709,14.739 9.248,23.158 l 22.791,4.242 0,8.248 0,8.251 L 0.001,0 Z"
             inkscape:connector-curvature="0"
             id="path3028" /></g></g></g></g><g
     inkscape:groupmode="layer"
     id="layer3"
     inkscape:label="bt"><g
       id="g3517"
       transform="matrix(0.53086527,0,0,0.53086527,287.03597,0.6415778)"
       style="fill:#001f9a;fill-opacity:1"><path
         id="path3519"
         d="m 140,143.6 c -15.9,15.9 -11.7,17.3 -10.6,18.4 1.1,1.1 89.8,85.6 89.8,85.6 0,0 3.9,3.4 3.9,8.4 l 0,0 c 0,5 -3.9,8.4 -3.9,8.4 0,0 -88.7,84.5 -89.8,85.6 -1.1,1.1 -5.3,2.5 10.6,18.4 15.9,15.9 18.4,12.2 19.2,11.4 l 67.4,-64.3 c 0.1,-0.1 0.2,-0.2 0.3,-0.3 0.1,-0.1 0.3,-0.2 0.4,-0.3 2.3,-1.9 9.8,-10.6 9.8,-3.2 0,7.3 0,151.8 0,156.4 l 0,0.1 0,1.7 c 0,5.5 5.2,10.1 11.6,10.1 3.5,0 6.7,-1.3 8.9,-3.5 l 0,0 c 0,0 118.2,-112.8 122.8,-117.2 4.6,-4.4 5,-10.7 1,-14.7 l -83.9,-80.3 c 0,0 -4.4,-4.3 -4.4,-8.3 0,-4 4.4,-8.3 4.4,-8.3 l 83.9,-80.3 c 4,-4 3.6,-10.4 -1,-14.7 C 375.8,148.3 257.6,35.5 257.6,35.5 l 0,0 c -2.1,-2.1 -5.3,-3.5 -8.8,-3.5 -6.4,0 -11.6,4.6 -11.6,10.1 l 0,1.7 0,0.2 c 0,4.6 0,149.1 0,156.4 0,7.4 -7.5,-1.3 -9.8,-3.2 -0.1,-0.1 -0.3,-0.2 -0.4,-0.3 -0.1,-0.1 -0.2,-0.2 -0.3,-0.3 l -67.4,-64.3 c -1,-0.9 -3.4,-4.6 -19.3,11.3 z m 140,-23.7 c 0,-6.6 7.5,2.3 9.8,4.4 l 30.5,29.2 c 2.1,2 2.9,4.7 2.9,7.2 0,2.5 -1,5.6 -2.8,7.3 -1.8,1.7 -30.8,29.5 -30.8,29.5 -2.3,1.8 -9.6,9.8 -9.6,1.7 0,0 0,-72.7 0,-79.3 z m 0,192.9 c 0,-8.2 7.2,-0.2 9.6,1.7 0,0 29.1,27.8 30.9,29.5 1.8,1.7 2.8,4.9 2.8,7.3 0,2.4 -0.8,5.2 -2.9,7.2 l -30.5,29.2 c -2.3,2.1 -9.8,11 -9.8,4.4 -0.1,-6.6 -0.1,-79.3 -0.1,-79.3 z"
         inkscape:connector-curvature="0"
         style="fill:#001f9a;fill-opacity:1" /></g></g></svg>